<svg xmlns="http://www.w3.org/2000/svg" viewBox="0 0 460 80" width="460" height="80">

  <!-- Background -->
  <rect width="460" height="80" fill="#050508" rx="3"/>

  <!-- Icon mark — 142×142 viewBox scaled to 52px (52/142 = 0.366) -->
  <!-- Centered vertically: (80 - 52) / 2 = 14 -->
  <g transform="translate(16, 14) scale(0.366)">
    <rect x="30" y="30" width="82" height="82" transform="rotate(45 71 71)"
      fill="none" stroke="#0D7AC7" stroke-width="4" opacity="0.95"/>
    <circle cx="71" cy="71" r="3.8"  fill="#1D8FE4"/>
    <circle cx="78" cy="71" r="3.4"  fill="rgba(29,143,228,0.94)"/>
    <circle cx="82" cy="77" r="3.2"  fill="rgba(29,143,228,0.90)"/>
    <circle cx="81" cy="85" r="3.0"  fill="rgba(29,143,228,0.86)"/>
    <circle cx="74" cy="91" r="2.8"  fill="rgba(29,143,228,0.82)"/>
    <circle cx="64" cy="92" r="2.6"  fill="rgba(29,143,228,0.78)"/>
    <circle cx="55" cy="87" r="2.5"  fill="rgba(29,143,228,0.74)"/>
    <circle cx="49" cy="78" r="2.3"  fill="rgba(29,143,228,0.70)"/>
    <circle cx="48" cy="67" r="2.2"  fill="rgba(29,143,228,0.66)"/>
    <circle cx="53" cy="57" r="2.1"  fill="rgba(29,143,228,0.62)"/>
    <circle cx="62" cy="50" r="2.0"  fill="rgba(29,143,228,0.58)"/>
    <circle cx="74" cy="48" r="1.95" fill="rgba(29,143,228,0.54)"/>
    <circle cx="86" cy="52" r="1.9"  fill="rgba(29,143,228,0.50)"/>
    <circle cx="95" cy="61" r="1.85" fill="rgba(29,143,228,0.46)"/>
  </g>

  <!-- Wordmark -->
  <text font-family="'Helvetica Neue', Helvetica, Arial, sans-serif"
        font-size="15" font-weight="300" letter-spacing="2.8" y="44">
    <tspan x="84" fill="#e2e8f0">FIELDSTONE</tspan>
    <tspan dx="12" fill="rgba(28,135,215,0.80)">ANALYTICS</tspan>
  </text>

  <!-- Sub-tagline -->
  <text x="84" y="60"
        font-family="'Helvetica Neue', Helvetica, Arial, sans-serif"
        font-size="8" font-weight="300" letter-spacing="2"
        fill="rgba(100,116,139,0.70)">
    INTELLIGENT MODELING PLATFORMS
  </text>

</svg>
